<?xml version="1.0" encoding="UTF-8" standalone="no"?>
<!-- Generator: Adobe Illustrator 19.1.0, SVG Export Plug-In . SVG Version: 6.00 Build 0)  -->

<svg
   xmlns:dc="http://purl.org/dc/elements/1.1/"
   xmlns:cc="http://creativecommons.org/ns#"
   xmlns:rdf="http://www.w3.org/1999/02/22-rdf-syntax-ns#"
   xmlns:svg="http://www.w3.org/2000/svg"
   xmlns="http://www.w3.org/2000/svg"
   xmlns:sodipodi="http://sodipodi.sourceforge.net/DTD/sodipodi-0.dtd"
   xmlns:inkscape="http://www.inkscape.org/namespaces/inkscape"
   version="1.1"
   id="Layer_1"
   x="0px"
   y="0px"
   viewBox="-668 452.5 177 158.04445"
   xml:space="preserve"
   sodipodi:docname="itchio.svg"
   inkscape:version="0.92.0 r15299"
   width="177"
   height="158.04445"><metadata
     id="metadata4513"><rdf:RDF><cc:Work
         rdf:about=""><dc:format>image/svg+xml</dc:format><dc:type
           rdf:resource="http://purl.org/dc/dcmitype/StillImage" /><dc:title></dc:title></cc:Work></rdf:RDF></metadata><defs
     id="defs4511" /><sodipodi:namedview
     pagecolor="#ffffff"
     bordercolor="#666666"
     borderopacity="1"
     objecttolerance="10"
     gridtolerance="10"
     guidetolerance="10"
     inkscape:pageopacity="0"
     inkscape:pageshadow="2"
     inkscape:window-width="1600"
     inkscape:window-height="837"
     id="namedview4509"
     showgrid="false"
     inkscape:zoom="0.49372098"
     inkscape:cx="-74.686763"
     inkscape:cy="554.85452"
     inkscape:window-x="-8"
     inkscape:window-y="-8"
     inkscape:window-maximized="1"
     inkscape:current-layer="Layer_1"
     fit-margin-top="0"
     fit-margin-left="0"
     fit-margin-right="0"
     fit-margin-bottom="0" /><path
     d="m -645,452.54444 -23,27 v 7.7 c 0,9.7 9,18.3 17.1,18.3 9.8,0 17.9,-8.2 17.9,-18 0,9.8 7.9,18 17.6,18 9.7,0 17.4,-8.2 17.4,-18 0,9.8 8.4,18 18.1,18 9.8,0 17.9,-8.2 17.9,-18 0,9.8 7.9,18 17.7,18 9.8,0 17.3,-8.2 17.3,-18 0,9.8 8.4,18 18.2,18 9.8,0 17.8,-8.2 17.8,-18 v -8 l -25,-27 c -43.6,-0.1 -129,0 -129,0 z"
     id="path4502"
     inkscape:connector-curvature="0"
     style="fill:#5a5a5a;fill-opacity:1;stroke:none" /><path
     id="path4504"
     d="m -633,501.04444 c -0.9,1.7 -2.2,3.1 -3.6,4.4 -3.7,3.7 -8.8,5.9 -14.3,5.9 -1.4,0 -5.1,-0.8 -5.1,-0.8 v 100 h 154 v -100.6 c -2.3,0.9 -4.2,1.4 -6.8,1.4 -5.6,0 -10.7,-2.3 -14.3,-5.9 -1.3,-1.3 -2.5,-2.8 -3.4,-4.5 -0.9,1.7 -2.1,3.2 -3.4,4.5 -3.7,3.7 -8.7,5.9 -14.3,5.9 -5.6,0 -10.7,-2.3 -14.3,-5.9 -1.3,-1.3 -2.5,-2.8 -3.4,-4.5 -0.9,1.7 -2.1,3.2 -3.4,4.5 -3.7,3.7 -8.8,5.9 -14.3,5.9 -5.6,0 -10.7,-2.3 -14.3,-5.9 -1.3,-1.3 -2.5,-2.8 -3.4,-4.5 -0.9,1.7 -2.1,3.2 -3.4,4.5 -3.7,3.7 -8.7,5.9 -14.3,5.9 -5.6,0 -10.7,-2.3 -14.3,-5.9 -1.7,-1.3 -2.8,-2.7 -3.7,-4.4 z m 22.2,18.5 c 6.7,0 11.5,4.4 13.2,10.9 h 37.1 c 1.7,-6.6 6.4,-10.9 13.2,-10.9 10.7,0 22.4,11 26.1,24.3 l 8.8,32 c 3.7,13.4 -2.1,24.3 -12.8,24.3 -9.4,0 -19.5,-8.4 -24.4,-19.6 h -58.8 c -4.8,11.1 -15,19.6 -24.4,19.6 -10.7,0 -16.4,-11 -12.8,-24.3 l 8.8,-32 c 3.6,-13.4 15.3,-24.3 26,-24.3 z"
     inkscape:connector-curvature="0"
     style="fill:#5a5a5a;fill-opacity:1;stroke:none" /><path
     d="m -592.3,547.84444 -12.5,13.5 h 12.4 v 13.9 h 24.6 v -13.9 h 13.2 l -12.5,-13.5 -12.5,-13.5 z"
     id="path4506"
     inkscape:connector-curvature="0"
     style="fill:#5a5a5a;fill-opacity:1;stroke:none" /></svg>