<?xml version="1.0" encoding="UTF-8" standalone="no"?>
<!-- Generator: Adobe Illustrator 14.0.0, SVG Export Plug-In . SVG Version: 6.00 Build 43363)  -->

<svg
   xmlns:dc="http://purl.org/dc/elements/1.1/"
   xmlns:cc="http://creativecommons.org/ns#"
   xmlns:rdf="http://www.w3.org/1999/02/22-rdf-syntax-ns#"
   xmlns:svg="http://www.w3.org/2000/svg"
   xmlns="http://www.w3.org/2000/svg"
   xmlns:sodipodi="http://sodipodi.sourceforge.net/DTD/sodipodi-0.dtd"
   xmlns:inkscape="http://www.inkscape.org/namespaces/inkscape"
   version="1.1"
   id="Scratch_Cat_A"
   x="0px"
   y="0px"
   width="94.227px"
   height="104.333px"
   viewBox="0 -2 94.227 104.333"
   enable-background="new 0 -2 94.227 104.333"
   xml:space="preserve"
   sodipodi:docname="scratch_blue.svg"
   inkscape:version="0.92.0 r15299"><metadata
     id="metadata32"><rdf:RDF><cc:Work
         rdf:about=""><dc:format>image/svg+xml</dc:format><dc:type
           rdf:resource="http://purl.org/dc/dcmitype/StillImage" /><dc:title></dc:title></cc:Work></rdf:RDF></metadata><defs
     id="defs30" /><sodipodi:namedview
     pagecolor="#ffffff"
     bordercolor="#666666"
     borderopacity="1"
     objecttolerance="10"
     gridtolerance="10"
     guidetolerance="10"
     inkscape:pageopacity="0"
     inkscape:pageshadow="2"
     inkscape:window-width="1600"
     inkscape:window-height="837"
     id="namedview28"
     showgrid="false"
     inkscape:zoom="9.0479522"
     inkscape:cx="28.269456"
     inkscape:cy="61.00828"
     inkscape:window-x="-8"
     inkscape:window-y="-8"
     inkscape:window-maximized="1"
     inkscape:current-layer="Scratch_Cat_A" /><path
     id="Back_Leg"
     fill="#FAA51D"
     stroke="#000000"
     d="M38.988,80.967c0,0-8.832,6.201-17.07,8.412l0.086,0.215  c1.247,1.824,5.869,7.498-0.334,9.496c-5.333,1.718-15.12-13.104-10.821-15.901c2.626-1.713,4.892-0.252,4.892-0.252  s3.475-1.069,6.001-2.345c4.304-2.162,5.784-3.453,5.784-3.453s4.185-4.307,6.856-4.137C37.051,73.172,42.44,77.715,38.988,80.967z   M19.646,90.09l2.271-0.711"
     style="fill:#4183c4;fill-opacity:1;stroke:none" /><g
     id="Tail"
     style="fill:#4183c4;fill-opacity:1;stroke:none"><path
       id="Tail_1_"
       fill="#FAA51D"
       stroke="#000000"
       d="M23.295,73.217c-2.415-0.451-5.305-1.311-7.742-3.504   c-5.451-4.906-7.194-13-11.048-10.914c-3.856,2.088-3.782,15.166,8.353,19.195c4.182,1.391,7.998,1.395,11.091,1.312   c0.812-0.026,7.718-0.655,10.079-4.075c2.361-3.419,0.719-4.271-0.09-4.744C33.128,70.016,26.711,73.855,23.295,73.217z"
       style="fill:#4183c4;fill-opacity:1;stroke:none" /><path
       id="Tail_Tip"
       fill="#FFFFFF"
       d="M4.641,59.107c-1.437,0.778-2.256,3.397-1.994,6.374c0.141,1.594,1.104,5.652,4.968,9.072   c0.275-0.545-0.975-2.936,0.742-4.379c1.837-1.543,4.86-1.225,5.853-1.061c-1.663-1.812-3.004-3.812-4.176-5.64   C7.751,59.922,6.475,58.116,4.641,59.107z"
       style="fill:#4183c4;fill-opacity:1;stroke:none" /></g><path
     id="R_Arm"
     fill="#FAA51D"
     stroke="#000000"
     d="M52.94,69.096c0,0,1.234,0.166,4.744,3.677c3.509,3.509,6.025,2.16,8.911,0.724  c2.877-1.442,10.536-6.127,6.489-9.817c-4.05-3.688-6.207,1.146-9.716,2.405c-3.511,1.26-5.06-2.487-6.856-4.287  c-0.59-0.594-1.188-1.098-1.729-1.506c0,0-0.972-0.758-1.905,2.791C51.943,66.624,50.933,67.627,52.94,69.096z"
     style="fill:#4183c4;fill-opacity:1;stroke:none" /><g
     id="Front_Leg_x2F_Body_1_"
     style="fill:#4183c4;fill-opacity:1;stroke:none"><path
       id="Front_Leg_x2F_Body"
       fill="#FAA51D"
       stroke="#000000"
       d="M47.524,76.224c1.188-0.912,2.396-2.401,3.951-4.714   c1.296-1.926,2.699-5.577,2.699-5.577c0.875-2.521,1.935-6.576-1.901-7.296c-1.553-0.291-4.079-0.098-7.67-0.776   c-3.593-0.681-6.798-2.522-9.517,2.233c-2.719,4.757-9.591,8.271-1.057,16.562c0,0,4.901,3.842,10.765,9.639   c4.832,4.774,12.044,10.603,12.044,10.603s18.973,2.188,19.534-0.694c1.923-9.789-14.775-6.91-14.775-6.91   s-4.604-3.933-6.727-5.795c-3.477-3.058-11.125-10.771-11.125-10.771"
       style="fill:#4183c4;fill-opacity:1;stroke:none" /><path
       id="Belly"
       fill="#FFFFFF"
       d="M49.74,64.551C44.8,61.895,42.526,64.536,41,66.073c-2.645,2.654,3.442,6.61,3.442,6.61   l3.062,3.089c2.999-3.496,4.579-5.874,5.292-7.934C52.654,66.897,51.918,65.725,49.74,64.551z"
       style="fill:#4183c4;fill-opacity:1;stroke:none" /></g><path
     id="L_Arm"
     fill="#FAA51D"
     stroke="#000000"
     d="M30.697,67.43c0.749-0.571,2.89-2.202,4.854-3.657  c2.428-1.799,6.117-5.849,1.077-7.646c-5.04-1.801-7.508,1.604-11.52,4.945c-2.159,1.801-5.308,2.698-4.319,6.209  c0.993,3.512,4.862,13.407,11.789,10.17c6.93-3.238-1.799-9.181-3.06-11.156"
     style="fill:#4183c4;fill-opacity:1;stroke:none" /><path
     style="fill:#4183c4;stroke:none;fill-opacity:1"
     d="M 63.728516 1.9394531 L 56.298828 9.2597656 L 53.777344 10.234375 C 55.756901 10.582471 58.021484 11.578125 58.021484 11.578125 L 53.767578 10.238281 L 53.443359 10.363281 C 51.904359 10.220281 48.725984 10.051719 46.958984 10.136719 C 42.229984 10.361719 37.732422 12.173828 37.732422 12.173828 L 24.853516 3.6484375 L 27.087891 22.558594 C 27.733891 21.772594 16.533375 35.361297 23.609375 46.779297 C 26.928375 52.139297 33.768984 56.903564 39.208984 58.726562 C 43.270984 60.086562 50.041984 60.462891 53.208984 60.462891 C 55.854984 60.462891 60.977297 59.922375 63.529297 59.484375 C 66.550297 58.965375 70.007984 57.855953 73.583984 56.376953 C 83.080984 52.442953 87.921172 45.904031 86.451172 39.457031 C 84.979172 33.010031 77.560547 31.878906 77.560547 31.878906 C 77.560547 31.878906 77.737594 26.52725 74.933594 21.53125 C 73.077594 18.22425 66.582031 13.488281 66.582031 13.488281 L 63.728516 1.9394531 z M 53.767578 10.238281 L 53.777344 10.234375 C 53.747634 10.229175 53.71707 10.217811 53.6875 10.212891 L 53.767578 10.238281 z M 64.773438 16.34375 C 67.263156 16.372859 70.166078 18.3885 72.361328 21.75 C 75.286328 26.229 75.644516 31.168187 72.853516 32.992188 C 70.060516 34.817187 65.671047 32.440984 62.748047 27.958984 C 59.815047 23.478984 59.669891 18.825 62.462891 17 C 63.159641 16.54425 63.943531 16.334047 64.773438 16.34375 z M 40.101562 19.738281 C 43.051642 19.568688 46.441922 21.468578 48.638672 24.830078 C 51.564672 29.310078 51.255078 34.692703 47.955078 36.845703 C 44.652078 39.004703 39.604641 37.118672 36.681641 32.638672 C 33.753641 28.158672 34.057375 22.778094 37.359375 20.621094 C 38.184875 20.082094 39.118203 19.794812 40.101562 19.738281 z M 76.041016 32.017578 C 76.041016 32.017578 84.596313 33.265797 86.070312 39.716797 C 87.542312 46.163797 82.439406 52.2545 72.941406 56.1875 C 69.365406 57.6655 64.819109 58.991828 61.787109 59.423828 C 59.030109 59.816828 51.607422 60.011719 51.607422 60.011719 C 50.523422 59.723719 49.912766 59.523094 48.134766 58.871094 C 41.731766 56.521094 32.559734 51.667531 33.052734 43.269531 C 33.127734 41.981531 33.711922 40.958484 34.544922 40.146484 C 37.044922 37.712484 46.255859 37.751953 46.255859 37.751953 C 46.255859 37.751953 56.412203 37.001781 60.783203 36.050781 C 62.148203 35.753781 63.086422 35.215234 63.732422 34.615234 C 65.147422 33.301234 70.124905 34.677161 71.451172 34.556641 L 74.044922 32.890625 L 76.041016 32.017578 z "
     transform="translate(0,-2)"
     id="Head_Fill" /><path
     id="Pupil_1_"
     d="m 46.85,28.719 c 0,1.081 -0.803,1.957 -1.801,1.957 -0.992,0 -1.804,-0.878 -1.804,-1.957 0,-1.08 0.812,-1.957 1.804,-1.957 0.996,0 1.801,0.877 1.801,1.957"
     inkscape:connector-curvature="0"
     style="fill:#4183c4;fill-opacity:1;stroke:none" /><path
     id="Pupil"
     d="m 71.86,26.734 c 0,1.08 -0.802,1.956 -1.8,1.956 -0.993,0 -1.804,-0.877 -1.804,-1.956 0,-1.08 0.811,-1.958 1.804,-1.958 0.998,0 1.8,0.878 1.8,1.958"
     inkscape:connector-curvature="0"
     style="fill:#4183c4;fill-opacity:1;stroke:none" /><path
     style="fill:#4183c4;stroke:none;fill-opacity:1"
     inkscape:connector-curvature="0"
     d="m 60.536,32.138 c 1.854,0 4.556,-0.284 4.696,0.569 0.145,0.855 -1.709,4.203 -2.987,4.345 -1.282,0.142 -6.125,-2.353 -6.194,-3.919 -0.074,-1.566 2.774,-0.995 4.485,-0.995"
     id="Nose" /><path
     inkscape:connector-curvature="0"
     d="M 22.75,36.602 C 22.727,36.585 20.368,34.842 16.748,33.24 12.736,31.463 10.485,30.98 10.464,30.975 L 10.709,29.8 c 0.095,0.02 2.381,0.506 6.525,2.342 3.751,1.661 6.133,3.424 6.232,3.498 z"
     id="Whisker_3_"
     style="fill:#4183c4;fill-opacity:1;stroke:none" /><path
     inkscape:connector-curvature="0"
     d="m 16.628,41.254 c -2.035,0 -5.092,-0.276 -5.238,-0.289 l 0.107,-1.195 c 0.041,0.004 4.088,0.367 5.887,0.266 1.82,-0.104 5.412,-0.578 5.447,-0.583 l 0.157,1.189 c -0.148,0.02 -3.67,0.484 -5.537,0.591 -0.242,0.015 -0.522,0.021 -0.823,0.021 z"
     id="Whisker_2_"
     style="fill:#4183c4;fill-opacity:1;stroke:none" /><path
     inkscape:connector-curvature="0"
     d="M 82.524,35.475 82.33,34.29 c 0.046,-0.007 4.524,-0.744 6.761,-1.523 2.573,-0.894 4.326,-2.415 4.345,-2.43 l 0.791,0.902 c -0.078,0.068 -1.948,1.691 -4.742,2.661 -2.334,0.814 -6.774,1.544 -6.961,1.575 z"
     id="Whisker_1_"
     style="fill:#4183c4;fill-opacity:1;stroke:none" /><path
     inkscape:connector-curvature="0"
     d="m 91.551,42.979 c -0.812,0 -1.905,-0.035 -3.189,-0.163 -2.858,-0.286 -5.584,-1.379 -5.699,-1.426 l 0.45,-1.112 c 0.027,0.011 2.686,1.075 5.368,1.344 2.672,0.267 4.518,0.111 4.535,0.11 l 0.104,1.195 c -0.043,0.004 -0.612,0.052 -1.569,0.052 z"
     id="Whisker"
     style="fill:#4183c4;fill-opacity:1;stroke:none" /><path
     style="fill:#4183c4;stroke:none;stroke-width:1.20000005;fill-opacity:1"
     inkscape:connector-curvature="0"
     d="m 47.545,39.447 c 0,0 10.347,3.054 14.217,3.896 3.867,0.842 10.851,1.684 10.851,1.684 0,0 -7.989,10.245 -17.327,7.645 -9.339,-2.597 -9.171,-8.485 -7.741,-13.225 z"
     id="Mouth" /></svg>